<?xml version="1.0" standalone="no"?>
<!DOCTYPE svg PUBLIC "-//W3C//DTD SVG 20010904//EN"
 "http://www.w3.org/TR/2001/REC-SVG-20010904/DTD/svg10.dtd">
<svg version="1.0" xmlns="http://www.w3.org/2000/svg"
 width="500.000000pt" height="500.000000pt" viewBox="0 0 500.000000 500.000000"
 preserveAspectRatio="xMidYMid meet">
<metadata>
Created by potrace 1.16, written by Peter Selinger 2001-2019
</metadata>
<g transform="translate(0.000000,500.000000) scale(0.100000,-0.100000)"
fill="#000000" stroke="none">
<path d="M575 2756 c-61 -29 -97 -66 -125 -129 -31 -69 -36 -141 -15 -212 13
-46 28 -69 73 -114 62 -61 107 -81 184 -81 98 0 181 49 222 132 42 83 39 88
-49 88 l-74 0 -16 -34 c-39 -82 -136 -72 -171 20 -34 88 -6 190 61 223 24 12
32 11 61 -2 18 -9 40 -30 49 -47 15 -29 17 -30 90 -30 84 0 85 2 56 65 -58
126 -218 182 -346 121z"/>
<path d="M1052 2503 l3 -268 73 -3 72 -3 0 130 c0 143 7 161 60 161 50 0 60
-28 60 -167 l0 -123 70 0 70 0 0 147 c0 127 -3 152 -20 189 -37 75 -140 97
-207 44 l-28 -22 -3 91 -3 91 -75 0 -74 0 2 -267z"/>
<path d="M3110 2500 l0 -270 65 0 65 0 0 58 c0 52 11 82 31 82 4 0 25 -31 48
-70 l42 -70 74 0 c41 0 75 2 75 4 0 2 -30 52 -66 111 -36 59 -68 114 -71 122
-4 9 19 39 58 79 l63 64 -74 0 -75 1 -52 -58 -53 -58 0 138 0 137 -65 0 -65 0
0 -270z"/>
<path d="M1742 2631 c-181 -45 -208 -311 -40 -395 87 -44 178 -30 241 36 54
57 50 68 -25 68 -40 -1 -70 -6 -82 -15 -29 -22 -64 -18 -91 10 -50 50 -39 55
115 55 l140 0 0 33 c0 78 -47 159 -109 192 -35 18 -108 26 -149 16z"/>
<path d="M2695 2631 c-123 -32 -186 -143 -151 -265 56 -191 335 -205 397 -19
19 59 8 154 -25 202 -44 64 -146 101 -221 82z m99 -112 c44 -52 34 -160 -19
-195 -21 -14 -31 -15 -51 -5 -45 20 -70 122 -43 174 34 65 73 74 113 26z"/>
<path d="M3785 2635 c-5 -2 -22 -6 -37 -9 -15 -4 -44 -21 -64 -39 -120 -104
-88 -300 58 -361 92 -39 210 1 254 85 l15 29 -68 0 c-44 -1 -75 -6 -87 -15
-29 -22 -64 -18 -91 10 -50 50 -39 55 115 55 l140 0 0 33 c0 78 -47 159 -109
192 -27 14 -108 27 -126 20z"/>
<path d="M4299 2625 c-125 -40 -179 -210 -101 -320 87 -124 258 -126 340 -5
l23 35 -66 3 c-50 2 -72 -1 -84 -13 -26 -23 -68 -19 -96 10 -50 50 -39 55 115
55 l140 0 0 43 c0 138 -136 234 -271 192z"/>
<path d="M2307 2600 c-40 -35 -51 -38 -42 -10 6 19 2 20 -64 20 l-71 0 0 -190
0 -190 65 0 65 0 0 83 c0 142 23 185 105 194 l45 6 0 58 0 59 -35 0 c-24 0
-45 -9 -68 -30z"/>
</g>
</svg>
