<?xml version="1.0" standalone="no"?>
<!DOCTYPE svg PUBLIC "-//W3C//DTD SVG 20010904//EN"
 "http://www.w3.org/TR/2001/REC-SVG-20010904/DTD/svg10.dtd">
<svg version="1.0" xmlns="http://www.w3.org/2000/svg"
 width="800.000000pt" height="800.000000pt" viewBox="0 0 800.000000 800.000000"
 preserveAspectRatio="xMidYMid meet">
<metadata>
Created by potrace 1.16, written by Peter Selinger 2001-2019
</metadata>
<g transform="translate(0.000000,800.000000) scale(0.100000,-0.100000)"
fill="#000000" stroke="none">
<path d="M2078 4400 c-71 -11 -156 -47 -168 -71 -16 -30 -11 -64 13 -87 44
-41 102 -54 268 -60 136 -4 157 -2 172 13 9 9 17 20 17 25 0 5 -42 6 -94 3
-186 -11 -315 40 -248 99 30 27 93 38 220 38 67 0 122 3 122 8 -1 25 -23 31
-130 36 -63 3 -141 1 -172 -4z"/>
<path d="M2498 4403 c-16 -4 -18 -18 -18 -114 l0 -109 60 0 60 0 0 45 0 45
130 0 130 0 0 -45 0 -45 59 0 60 0 3 110 c3 125 3 125 -78 118 -39 -3 -39 -3
-42 -51 l-3 -48 -127 3 -127 3 -5 45 c-5 44 -5 44 -45 46 -22 1 -48 -1 -57 -3z"/>
<path d="M3090 4295 l0 -115 65 0 65 0 0 96 0 97 88 -6 c97 -6 122 -13 122
-33 0 -15 -59 -34 -108 -34 -33 0 -33 -1 42 -60 l76 -60 67 0 68 0 -69 45
c-87 56 -84 53 -50 60 54 12 94 34 94 53 0 53 -80 72 -307 72 l-153 0 0 -115z"/>
<path d="M3590 4403 c1 -5 37 -34 80 -65 l80 -58 0 -50 0 -50 64 0 63 0 -2 45
c-3 52 -1 55 90 126 l69 54 -37 3 c-30 3 -47 -4 -94 -37 -31 -23 -60 -41 -64
-41 -5 0 -34 18 -65 40 -52 36 -63 40 -121 40 -34 0 -63 -3 -63 -7z"/>
<path d="M4183 4400 c-60 -7 -113 -30 -113 -51 0 -23 21 -47 49 -57 16 -6 73
-16 128 -22 54 -7 102 -17 108 -22 23 -21 -24 -29 -150 -26 -113 3 -130 1
-133 -13 -4 -23 36 -29 177 -29 167 1 241 22 241 71 0 32 -46 51 -158 65 -125
17 -140 20 -125 35 7 7 54 10 126 7 103 -3 117 -1 120 14 4 13 -3 19 -27 22
-61 9 -182 12 -243 6z"/>
<path d="M4587 4403 c-4 -3 -7 -55 -7 -115 l0 -108 200 0 c193 0 200 1 200 20
0 19 -7 20 -140 20 l-140 0 0 95 0 95 -53 0 c-30 0 -57 -3 -60 -7z"/>
<path d="M5090 4295 l0 -115 205 0 c198 0 205 1 205 20 0 19 -7 20 -145 20
l-145 0 0 25 0 25 140 0 c133 0 140 1 140 20 0 19 -7 20 -140 20 l-140 0 0 30
0 30 140 0 c133 0 140 1 140 20 0 19 -7 20 -200 20 l-200 0 0 -115z"/>
<path d="M5600 4295 l0 -115 65 0 65 0 0 96 0 97 83 -5 c46 -3 94 -11 107 -18
20 -11 21 -13 7 -28 -9 -8 -40 -17 -71 -20 l-55 -4 72 -59 c71 -58 73 -59 136
-59 73 0 73 1 -17 58 l-62 40 32 7 c54 12 98 36 98 55 0 51 -82 70 -307 70
l-153 0 0 -115z"/>
<path d="M2200 3999 c-327 -3 -601 -7 -607 -8 -24 -2 -13 -40 17 -61 56 -40
195 -98 270 -114 182 -37 1085 -152 1662 -212 155 -16 173 -16 271 0 134 20
232 20 377 0 l115 -17 375 42 c618 69 1281 155 1440 187 75 16 214 74 270 114
17 12 30 30 30 40 0 16 -14 18 -152 24 -84 3 -517 7 -963 8 l-810 3 -65 -25
c-64 -24 -72 -24 -407 -28 l-342 -3 -108 31 -108 31 -335 -3 c-184 -1 -603 -5
-930 -9z m1361 -36 c82 -26 90 -26 407 -30 l324 -4 119 30 118 31 304 0 c602
0 1567 -13 1567 -22 0 -14 -87 -65 -166 -98 -82 -34 -203 -55 -659 -115 -334
-44 -408 -54 -515 -65 -47 -4 -228 -25 -402 -44 l-318 -37 -82 22 c-177 45
-341 44 -521 -2 -87 -22 -40 -25 -582 37 -121 13 -236 26 -255 29 -310 35
-990 129 -1055 146 -85 23 -245 107 -245 130 0 9 216 11 1366 17 l510 2 85
-27z"/>
<path d="M1725 3940 c28 -4 221 -16 430 -24 627 -27 779 -35 835 -47 25 -6 84
-30 132 -54 158 -81 273 -112 438 -119 58 -2 89 -2 70 0 -138 18 -342 71 -401
105 -22 13 -16 14 66 20 l90 5 -104 2 c-88 2 -109 5 -140 25 l-36 22 110 5
110 5 -130 6 c-71 3 -166 11 -210 17 -44 6 -330 16 -635 22 -305 6 -582 13
-615 15 l-60 4 50 -9z"/>
<path d="M5500 3929 c-238 -5 -456 -14 -495 -20 -38 -7 -122 -15 -185 -18
l-115 -5 95 -6 95 -5 -36 -22 c-32 -20 -50 -23 -144 -23 -60 0 -106 -3 -102
-6 3 -3 47 -5 97 -5 59 1 89 -3 85 -9 -3 -5 -11 -10 -17 -10 -5 0 -24 -6 -41
-14 -70 -32 -210 -66 -362 -90 -16 -2 17 -2 75 0 109 5 197 22 289 55 56 21
168 74 186 89 24 20 136 39 265 45 74 3 160 8 190 10 30 2 183 9 340 16 157 6
341 14 410 19 l125 7 -165 0 c-91 0 -356 -4 -590 -8z"/>
<path d="M3420 3871 c15 -28 62 -60 128 -84 53 -20 79 -22 414 -25 234 -2 383
0 430 8 80 12 181 60 206 98 l14 22 -601 0 c-591 0 -602 0 -591 -19z"/>
</g>
</svg>
