<?xml version="1.0" standalone="no"?>
<!DOCTYPE svg PUBLIC "-//W3C//DTD SVG 20010904//EN"
 "http://www.w3.org/TR/2001/REC-SVG-20010904/DTD/svg10.dtd">
<svg version="1.0" xmlns="http://www.w3.org/2000/svg"
 width="300.000000pt" height="300.000000pt" viewBox="0 0 300.000000 300.000000"
 preserveAspectRatio="xMidYMid meet">

<g transform="translate(0.000000,300.000000) scale(0.100000,-0.100000)"
fill="#000000" stroke="none">
<path d="M1330 2989 c-106 -11 -272 -52 -368 -90 -487 -194 -820 -588 -934
-1106 -29 -132 -31 -423 -5 -558 64 -326 207 -588 444 -816 252 -241 566 -382
911 -408 348 -27 673 58 963 251 129 85 315 272 402 403 114 173 185 342 229
549 17 83 21 135 21 286 0 206 -16 314 -75 485 -47 138 -144 325 -169 325 -17
0 -9 -21 46 -134 90 -185 134 -348 155 -586 22 -246 -6 -408 -111 -636 -92
-200 -126 -258 -202 -347 -236 -277 -491 -437 -821 -515 -100 -24 -131 -26
-311 -27 -158 0 -218 4 -285 19 -340 74 -636 247 -846 498 -96 113 -147 192
-205 312 -95 200 -125 358 -116 611 9 237 56 448 147 650 32 71 100 189 105
183 2 -2 -17 -59 -42 -128 -62 -173 -81 -254 -94 -411 -18 -218 13 -548 68
-722 13 -44 26 -77 28 -75 2 2 -7 48 -21 103 -37 155 -54 289 -59 477 -5 169
3 189 22 63 6 -38 9 -4 14 140 7 208 27 310 74 392 14 23 27 43 29 43 1 0 -8
-31 -21 -69 -28 -84 -51 -273 -59 -476 -7 -206 8 -246 72 -192 l29 25 -3 -65
c-5 -96 33 -278 68 -323 22 -28 46 -90 35 -90 -1 0 -24 12 -49 26 -26 15 -50
23 -54 20 -8 -8 51 -189 89 -273 28 -63 42 -76 53 -48 17 46 102 -18 174 -130
57 -90 153 -182 231 -224 68 -36 217 -71 291 -70 l45 1 -45 10 c-106 23 -227
61 -287 90 -96 47 -135 86 -187 188 -26 49 -45 90 -42 90 3 0 15 -18 26 -40
37 -73 28 -41 -21 76 -142 334 -209 749 -181 1119 l9 120 2 -116 c3 -236 58
-686 110 -890 115 -457 299 -562 956 -546 376 9 539 51 669 171 38 36 53 45
41 26 -3 -6 1 -7 9 -4 9 3 30 33 48 66 24 46 33 56 38 43 10 -28 124 131 186
260 64 130 99 259 114 410 10 103 4 213 -15 270 -3 11 6 -2 20 -29 18 -32 30
-45 37 -38 17 17 13 366 -5 452 -17 83 -42 150 -56 150 -5 0 -15 -16 -21 -36
-7 -19 -14 -33 -16 -31 -2 2 3 23 11 46 13 39 13 45 -3 66 -49 67 -96 53 -86
-24 4 -35 2 -50 -9 -59 -12 -11 -16 -7 -22 25 -11 61 -44 114 -110 179 -162
159 -473 241 -944 250 -204 3 -220 2 -355 -25 -178 -36 -283 -71 -349 -117
-57 -40 -55 -40 50 5 173 75 381 111 633 111 260 0 581 -44 690 -94 19 -9 26
-14 15 -10 -42 13 -260 54 -372 71 -148 21 -532 25 -638 5 -92 -17 -216 -53
-210 -62 2 -3 -19 -15 -48 -24 -139 -49 -249 -140 -301 -250 -26 -54 -51 -147
-59 -216 -2 -23 -4 -14 -5 25 l-2 60 -25 -47 c-14 -26 -26 -62 -27 -80 -1 -24
-3 -20 -7 17 -5 45 -10 52 -43 70 -21 11 -38 24 -38 30 0 5 5 4 12 -3 9 -9 21
9 51 81 22 50 40 99 40 107 0 8 4 21 10 28 5 7 7 15 3 19 -3 4 -23 -10 -44
-30 -35 -34 -62 -47 -62 -30 0 3 12 26 26 50 24 41 24 46 9 57 -15 11 -12 16
29 54 101 94 204 145 453 225 182 59 248 76 223 57 -12 -9 -7 -10 20 -6 226
36 648 42 813 12 226 -41 357 -112 402 -218 12 -31 27 -44 83 -71 45 -23 75
-32 91 -28 22 6 20 10 -43 68 -235 221 -540 323 -961 324 -204 0 -327 -11
-501 -46 -264 -53 -427 -133 -586 -286 -27 -25 -48 -41 -48 -36 0 17 144 152
233 218 276 206 552 299 887 299 178 0 294 -18 451 -70 244 -81 440 -207 620
-399 76 -80 101 -95 113 -66 9 23 -197 230 -307 308 -178 128 -407 226 -612
261 -115 20 -326 27 -435 15z m1135 -740 c9 -17 15 -33 13 -35 -3 -2 -12 12
-21 31 -21 43 -13 47 8 4z m-1415 -250 l0 -59 -80 0 -80 0 0 -185 0 -185 70 0
70 0 0 -65 0 -65 -70 0 -70 0 0 -265 0 -265 -78 0 -79 0 -6 197 c-4 108 -7
366 -7 574 l0 378 158 3 c86 2 160 2 165 0 4 -2 7 -30 7 -63z m258 -511 l2
-578 -85 0 -85 0 0 580 0 581 83 -3 82 -3 3 -577z m469 532 c12 -25 35 -88 52
-140 61 -189 81 -374 81 -727 l0 -243 -74 0 -74 0 -1 250 c-1 138 -4 257 -8
265 -4 12 -24 15 -89 15 l-84 0 0 -265 0 -265 -85 0 -85 0 0 580 0 580 173 -2
172 -3 22 -45z m451 40 l82 0 0 -60 0 -60 -65 0 -65 0 0 -312 c0 -172 -3 -404
-7 -515 l-6 -203 -78 0 -79 0 -2 513 -3 512 -57 3 -58 3 0 66 0 66 128 -6 c70
-4 164 -7 210 -7z m-1836 -102 c-4 -151 -17 -173 -25 -42 -7 114 -3 148 17
141 7 -3 10 -35 8 -99z m2188 62 c13 0 24 -9 30 -26 12 -31 39 -264 30 -264
-3 0 -20 42 -39 93 -56 153 -54 149 -61 97 l-7 -45 -1 51 c-1 28 -5 66 -8 84
-7 30 -6 32 14 21 11 -6 30 -11 42 -11z m-1969 -1192 c13 -25 -1 -23 -39 6
-32 23 -32 23 -9 34 l22 11 -22 0 c-19 1 -23 7 -23 34 -1 17 -3 61 -5 97 l-5
65 35 -114 c20 -63 40 -122 46 -133z m27 -66 c2 -7 -2 -10 -12 -6 -9 3 -16 11
-16 16 0 13 23 5 28 -10z"/>
<path d="M740 930 c0 -5 5 -10 11 -10 5 0 7 5 4 10 -3 6 -8 10 -11 10 -2 0 -4
-4 -4 -10z"/>
<path d="M1580 1755 l0 -185 80 0 80 0 0 28 c-1 49 -28 176 -49 234 -28 73
-56 108 -87 108 l-24 0 0 -185z"/>
<path d="M2540 2370 c20 -13 33 -13 25 0 -3 6 -14 10 -23 10 -15 0 -15 -2 -2
-10z"/>
<path d="M2744 2180 c13 -30 36 -100 51 -155 28 -101 51 -150 39 -85 -21 115
-61 230 -98 275 -10 13 -7 0 8 -35z"/>
<path d="M2840 1759 l0 -94 -31 38 c-17 20 -34 37 -37 37 -4 0 -4 -53 0 -117
13 -185 -15 -360 -73 -475 -11 -21 -36 -88 -56 -150 -19 -62 -48 -140 -63
-174 -40 -88 -119 -222 -140 -237 -9 -6 -32 -33 -49 -59 -80 -118 -243 -207
-467 -253 -120 -25 -320 -45 -444 -45 -369 0 -669 75 -858 215 -69 50 -80 45
-26 -14 62 -69 264 -156 454 -195 200 -40 491 -45 715 -11 382 58 660 221 795
466 28 51 30 52 30 24 1 -59 14 -59 62 2 110 142 173 311 212 578 29 192 30
298 7 430 -12 65 -24 121 -26 124 -3 2 -5 -38 -5 -90z"/>
<path d="M191 1108 c-1 -27 73 -248 104 -309 46 -90 113 -184 175 -243 63 -60
103 -79 46 -21 -94 94 -153 200 -314 565 -7 18 -11 20 -11 8z"/>
<path d="M1868 393 c7 -3 16 -2 19 1 4 3 -2 6 -13 5 -11 0 -14 -3 -6 -6z"/>
<path d="M1220 369 c218 -43 389 -43 560 0 l75 19 -85 -6 c-109 -9 -461 -9
-565 -1 l-80 7 95 -19z"/>
</g>
</svg>
