<?xml version="1.0" standalone="no"?>
<!DOCTYPE svg PUBLIC "-//W3C//DTD SVG 20010904//EN"
 "http://www.w3.org/TR/2001/REC-SVG-20010904/DTD/svg10.dtd">
<svg version="1.0" xmlns="http://www.w3.org/2000/svg"
 width="900.000000pt" height="500.000000pt" viewBox="0 0 900.000000 500.000000"
 preserveAspectRatio="xMidYMid meet">

<g transform="translate(0.000000,500.000000) scale(0.100000,-0.100000)"
fill="#000000" stroke="none">
<path d="M1628 3252 l-3 -1007 -33 -67 c-40 -82 -111 -149 -189 -178 -119 -44
-274 -45 -377 0 -69 29 -158 118 -192 193 -29 61 -29 65 -34 287 l-5 225 -344
3 -343 2 4 -282 c5 -267 6 -289 31 -383 28 -103 76 -215 121 -282 80 -117 231
-234 376 -292 147 -58 279 -81 497 -88 277 -8 477 22 660 101 238 102 406 284
491 531 58 170 55 122 59 1228 l4 1017 -360 0 -361 0 -2 -1008z"/>
<path d="M3268 3460 c-131 -24 -237 -67 -344 -141 -378 -262 -548 -890 -369
-1364 147 -392 487 -615 935 -615 341 0 619 105 822 310 87 88 152 206 164
298 l7 52 -324 0 -324 0 -35 -47 c-79 -107 -175 -149 -320 -141 -102 6 -166
34 -224 99 -65 71 -106 191 -106 312 l0 37 671 0 671 0 -7 108 c-39 650 -252
965 -725 1073 -96 22 -410 34 -492 19z m365 -437 c65 -20 136 -79 169 -140 29
-53 58 -150 58 -195 l0 -28 -345 0 -345 0 0 35 c0 92 44 207 101 264 83 83
222 108 362 64z"/>
<path d="M5430 3464 c-94 -18 -192 -50 -258 -83 -356 -179 -573 -622 -541
-1103 29 -435 269 -763 649 -886 221 -72 532 -69 762 8 298 100 528 310 572
523 7 34 11 65 9 70 -6 11 -653 9 -653 -2 0 -23 -106 -122 -158 -148 -51 -25
-67 -28 -162 -28 -86 0 -113 4 -151 21 -126 58 -192 176 -201 357 l-3 67 669
0 669 0 -6 132 c-28 602 -262 946 -715 1049 -64 15 -135 21 -272 24 -102 2
-196 2 -210 -1z m356 -445 c122 -45 213 -183 214 -321 l0 -38 -339 0 c-221 0
-342 4 -346 10 -12 19 15 154 41 207 13 28 39 65 56 82 86 84 240 109 374 60z"/>
<path d="M7925 3443 c-138 -19 -263 -80 -361 -174 -101 -99 -111 -95 -121 49
l-6 82 -323 0 -324 0 0 -1332 0 -1333 330 0 330 0 0 368 c0 367 3 407 35 407
7 0 37 -21 67 -46 126 -108 304 -159 523 -151 227 8 370 69 520 221 133 136
216 302 267 538 29 137 33 472 6 613 -62 326 -225 560 -475 682 -139 67 -318
97 -468 76z m49 -533 c67 -26 135 -83 172 -145 13 -23 34 -77 46 -121 29 -106
31 -396 4 -519 -35 -158 -107 -269 -211 -323 -45 -24 -60 -27 -155 -26 -85 0
-116 5 -164 24 -102 39 -172 131 -207 270 -22 87 -19 456 4 540 36 132 99 235
170 279 88 54 229 63 341 21z"/>
<path d="M8585 1277 c-127 -72 -124 -249 5 -314 73 -37 147 -28 203 25 42 40
57 75 57 133 0 138 -146 224 -265 156z m167 -13 c35 -18 65 -58 80 -105 23
-78 -34 -175 -117 -198 -101 -28 -205 52 -205 159 0 123 130 201 242 144z"/>
<path d="M8612 1123 c1 -54 3 -79 5 -55 4 41 5 42 39 42 31 0 36 -4 50 -40 9
-22 20 -40 25 -40 12 0 12 4 -8 44 -15 33 -15 37 0 54 41 45 4 92 -70 92 l-43
0 2 -97z m103 42 c0 -28 -3 -30 -42 -33 l-43 -3 0 36 0 36 43 -3 c39 -3 42 -5
42 -33z"/>
</g>
</svg>
