<?xml version="1.0" standalone="no"?>
<!DOCTYPE svg PUBLIC "-//W3C//DTD SVG 20010904//EN"
 "http://www.w3.org/TR/2001/REC-SVG-20010904/DTD/svg10.dtd">
<svg version="1.0" xmlns="http://www.w3.org/2000/svg"
 width="350.000000pt" height="350.000000pt" viewBox="0 0 350.000000 350.000000"
 preserveAspectRatio="xMidYMid meet">
<metadata>
Created by potrace 1.16, written by Peter Selinger 2001-2019
</metadata>
<g transform="translate(0.000000,350.000000) scale(0.100000,-0.100000)"
fill="#000000" stroke="none">
<path d="M1250 3214 c-421 -27 -453 -32 -510 -81 -17 -14 -41 -44 -53 -67 -22
-40 -22 -48 -20 -371 4 -512 26 -909 59 -1040 34 -139 115 -252 246 -342 94
-65 321 -193 576 -327 l202 -106 203 106 c258 136 482 263 575 327 131 90 212
203 246 342 32 129 55 540 59 1050 2 313 2 321 -20 361 -49 91 -111 117 -323
135 -126 10 -1119 21 -1240 13z m935 -104 c292 -13 439 -25 483 -41 56 -20 62
-44 62 -266 0 -237 -16 -693 -31 -888 -28 -374 -71 -431 -507 -674 -86 -48
-221 -121 -300 -162 l-142 -74 -113 59 c-672 354 -768 429 -812 644 -39 190
-74 1226 -44 1312 8 22 22 37 46 47 98 41 852 64 1358 43z"/>
<path d="M1245 2843 c-107 -24 -195 -82 -246 -161 -43 -68 -35 -81 15 -25 106
118 272 151 410 81 80 -41 193 -169 247 -280 13 -27 26 -48 30 -48 4 0 15 26
24 58 l17 57 -28 55 c-38 72 -165 200 -227 229 -75 34 -177 49 -242 34z"/>
<path d="M2102 2840 c-111 -23 -251 -139 -316 -261 l-28 -54 17 -57 c9 -32 20
-58 24 -58 4 0 17 21 30 48 34 69 101 160 160 215 150 140 357 134 496 -14 51
-55 59 -44 17 22 -79 125 -247 191 -400 159z"/>
<path d="M1103 2621 c-109 -28 -193 -148 -193 -277 0 -36 3 -43 21 -46 17 -2
26 -19 46 -87 45 -157 136 -291 196 -291 52 0 59 43 26 160 -14 47 -22 106
-23 158 -1 76 1 85 23 103 31 25 37 24 71 -9 28 -28 28 -31 23 -108 -8 -109 7
-136 92 -175 35 -16 66 -37 69 -46 3 -10 17 -68 31 -128 19 -82 37 -131 71
-190 32 -56 50 -104 61 -158 9 -43 25 -89 35 -103 18 -22 27 -24 98 -24 100 0
110 10 132 122 12 60 29 104 61 161 33 57 52 108 72 190 15 62 29 120 32 130
2 10 33 30 68 46 85 39 100 66 92 175 -5 77 -5 80 23 108 34 33 40 34 71 9 22
-18 24 -27 23 -103 0 -53 -8 -110 -22 -159 -34 -117 -27 -159 25 -159 61 0
163 154 202 306 15 57 22 70 41 72 21 4 22 7 18 66 -6 71 -37 148 -76 189 -73
77 -199 95 -304 44 -97 -48 -188 -164 -239 -306 l-23 -64 28 -22 28 -23 -13
-62 -14 -63 -52 -19 c-49 -19 -51 -21 -57 -66 -4 -26 -9 -60 -12 -77 l-5 -30
34 36 c46 48 67 56 67 24 0 -30 -20 -50 -65 -65 -19 -6 -35 -12 -36 -13 0 -1
-8 -56 -18 -122 -12 -80 -15 -128 -9 -144 13 -35 4 -48 -39 -61 -31 -9 -45 -8
-75 4 -41 17 -43 22 -29 59 6 16 5 58 -5 123 -22 146 -20 141 -59 154 -45 15
-65 35 -65 65 0 32 24 24 68 -24 l33 -36 -5 30 c-3 17 -8 51 -12 77 -6 45 -8
47 -57 66 l-52 19 -14 63 -13 62 28 23 c28 22 28 24 15 61 -52 151 -150 283
-244 328 -57 28 -144 40 -194 27z"/>
<path d="M880 2203 c0 -224 70 -423 171 -490 37 -25 52 -28 120 -28 68 0 81 3
103 24 34 32 50 83 43 136 -7 46 -35 125 -46 125 -3 0 -4 -27 -3 -60 3 -52 1
-62 -22 -85 -38 -38 -77 -34 -131 16 -76 70 -132 189 -165 349 -16 79 -19 85
-44 88 l-26 3 0 -78z"/>
<path d="M2566 2268 c-3 -7 -10 -42 -16 -77 -17 -93 -67 -224 -109 -287 -67
-100 -137 -129 -187 -79 -23 23 -25 33 -22 85 1 33 0 60 -3 60 -11 0 -37 -72
-44 -122 -9 -56 6 -106 41 -139 22 -21 35 -24 103 -24 68 0 83 3 120 28 101
67 171 264 171 483 0 83 0 84 -25 84 -14 0 -27 -6 -29 -12z"/>
<path d="M530 460 l0 -180 135 0 135 0 0 50 c0 45 2 50 23 50 15 0 33 -16 57
-50 l35 -50 148 0 149 0 -56 62 -55 63 24 13 c50 26 70 105 40 161 -28 55 -65
61 -365 61 l-270 0 0 -180z"/>
<path d="M1343 465 c-51 -96 -93 -177 -93 -180 0 -3 65 -5 144 -5 l144 0 12
35 12 35 88 0 88 0 12 -35 12 -35 144 0 c79 0 144 3 144 6 0 3 -44 84 -97 180
l-98 174 -210 0 -210 0 -92 -175z"/>
<path d="M2100 460 l0 -180 140 0 140 0 1 88 0 87 45 -87 44 -88 68 0 68 0 41
83 42 82 0 -82 1 -83 140 0 140 0 0 180 0 180 -193 0 -193 0 -23 -47 -23 -48
-24 48 -24 47 -195 0 -195 0 0 -180z"/>
</g>
</svg>
